<?xml version="1.0" encoding="UTF-8" standalone="no"?>
<svg width="505px" height="148px" viewBox="0 0 505 148" version="1.1" xmlns="http://www.w3.org/2000/svg" xmlns:xlink="http://www.w3.org/1999/xlink" xmlns:sketch="http://www.bohemiancoding.com/sketch/ns">
    <!-- Generator: Sketch 3.0.4 (8053) - http://www.bohemiancoding.com/sketch -->
    <title>Untitled 3</title>
    <desc>Created with Sketch.</desc>
    <defs>
        <path id="path-1" d="M0,148 L504.663,148 L504.663,0.365 L0,0.365 L0,148 Z"></path>
    </defs>
    <g id="Page-1" stroke="none" stroke-width="1" fill="none" fill-rule="evenodd" sketch:type="MSPage">
        <g id="Rackspace_Cloud_Company_Logo_clr" sketch:type="MSLayerGroup">
            <g id="Group-4">
                <mask id="mask-2" sketch:name="Clip 2" fill="white">
                    <use xlink:href="#path-1"></use>
                </mask>
                <g id="Clip-2"></g>
                <path d="M77.613,13.655 C77.636,13.663 77.652,13.69 77.652,13.717 C77.652,13.728 77.652,13.736 77.648,13.742 C75.859,18.815 72.889,24.589 69.943,28.968 C63.744,38.176 54.842,43.983 50.066,41.936 C45.291,39.89 46.44,30.762 52.646,21.551 C54.046,19.483 55.577,17.589 57.163,15.914 C57.176,15.901 57.185,15.885 57.185,15.865 C57.185,15.827 57.152,15.795 57.112,15.795 C57.112,15.795 57.104,15.795 57.104,15.797 C55.152,16.068 53.176,16.451 51.184,16.956 C51.168,16.958 51.156,16.968 51.145,16.98 C30.195,42.675 21.276,76.046 22.505,105.816 L22.505,105.818 C22.505,105.859 22.473,105.888 22.434,105.888 C22.434,105.888 22.417,105.888 22.409,105.885 C10.056,100.906 1.03,88.974 0.092,73.867 L0.08,73.692 C-1.479,46.812 19.948,19.278 47.943,12.191 C58.794,9.443 69.044,10.167 77.613,13.655 L77.613,13.655 Z M53.199,28.938 C51.191,33.173 51.991,36.648 54.985,36.701 C57.983,36.755 62.043,33.367 64.047,29.137 C66.059,24.9 65.26,21.425 62.262,21.37 C59.268,21.32 55.208,24.707 53.199,28.938 L53.199,28.938 Z" id="Fill-1" fill="#CE2331" sketch:type="MSShapeGroup" mask="url(#mask-2)"></path>
                <path d="M69.692,86.149 C67.656,87.563 65.533,88.869 63.339,90.045 C63.331,90.05 63.319,90.053 63.319,90.053 C63.271,90.053 63.24,90.024 63.235,89.986 C62.826,83.533 61.439,77.28 59.032,72.078 C52.623,58.191 41.424,57.122 34.021,69.694 C29.49,77.388 27.427,88.414 27.988,98.996 C27.988,99.025 28.008,99.051 28.036,99.059 C35.889,101.518 44.935,101.788 54.583,99.353 C82.543,92.23 103.927,64.724 102.371,37.872 C101.004,14.285 82.396,-0.958 58.941,0.455 C58.941,0.455 58.909,0.463 58.898,0.475 C56.619,2.784 54.484,5.114 52.48,7.465 C52.468,7.477 52.464,7.493 52.464,7.509 C52.464,7.549 52.496,7.581 52.532,7.581 C52.532,7.581 52.539,7.581 52.544,7.578 C66.284,5.839 77.303,8.632 84.49,14.36 C84.507,14.372 84.52,14.392 84.52,14.414 C84.52,14.428 84.515,14.441 84.507,14.452 C59.74,49.37 62.806,69.265 69.716,86.065 C69.72,86.074 69.72,86.081 69.72,86.092 C69.72,86.115 69.709,86.137 69.692,86.149" id="Fill-3" fill="#1A1918" sketch:type="MSShapeGroup" mask="url(#mask-2)"></path>
            </g>
            <path d="M388.976,95.171 C388.96,95.153 388.956,95.131 388.96,95.113 L390.142,89.121 C390.156,89.028 390.108,88.956 390.024,88.94 C389.957,88.928 389.903,88.964 389.871,89.018 C387.258,93.447 382.136,96.272 376.384,96.272 C366.933,96.272 362.667,87.887 362.663,79.493 C362.653,69.959 366.397,60.518 372.674,54.24 C377.931,48.981 384.712,46.201 392.295,46.201 C398.064,46.226 402.326,47.896 405.003,51.136 C408.963,55.931 408.636,63.131 407.65,68.367 L402.534,95.139 C402.53,95.173 402.499,95.196 402.466,95.196 L389.026,95.196 C389.009,95.196 388.987,95.187 388.976,95.171 L388.976,95.171 Z M383.698,59.848 C379.883,63.668 377.012,70.843 377.016,76.555 C377.02,81.569 378.88,84.692 382.108,84.692 C387.28,84.692 391.737,79.283 393.273,71.363 C393.616,69.593 393.966,67.792 394.216,66.192 C394.466,64.592 394.621,63.18 394.575,62.194 C394.409,58.812 392.647,56.987 389.491,56.987 C387.56,56.987 385.556,57.987 383.698,59.848 L383.698,59.848 Z" id="Fill-5" fill="#1A1918" sketch:type="MSShapeGroup"></path>
            <path d="M300.731,46.201 C306.576,46.201 310.894,47.474 312.981,48.653 C313.005,48.667 313.022,48.697 313.013,48.727 L310.998,59.315 C310.993,59.337 310.978,59.355 310.958,59.365 C310.938,59.375 310.913,59.375 310.894,59.363 C308.528,58.075 304.44,56.7 300.048,56.7 C296.362,56.7 293.966,58.243 293.966,60.83 C293.966,62.682 295.802,64.345 299.69,66.239 C304.755,68.77 310.477,72.52 310.477,79.296 C310.477,83.72 309.002,87.419 306.096,90.302 C302.231,94.137 295.962,96.231 288.417,96.173 C282.621,96.077 276.755,94.572 273.816,92.447 C273.798,92.431 273.786,92.404 273.79,92.376 L275.813,81.723 C275.817,81.701 275.834,81.682 275.858,81.672 C275.877,81.664 275.901,81.666 275.921,81.678 C279.062,83.648 285.249,85.771 289.79,85.771 C293.309,85.771 295.677,84.147 295.677,81.543 C295.677,79.183 294.011,77.533 289.753,75.451 C283.022,72.084 279.655,67.818 279.655,62.786 C279.655,52.889 288.084,46.201 300.731,46.201" id="Fill-6" fill="#1A1918" sketch:type="MSShapeGroup"></path>
            <path d="M441.229,46.301 C444.817,46.301 448.479,46.925 451.024,47.967 C451.057,47.979 451.079,48.013 451.069,48.046 L448.896,59.45 C448.89,59.472 448.878,59.492 448.854,59.5 C448.836,59.509 448.812,59.509 448.79,59.498 C446.597,58.271 444.06,57.679 441.034,57.679 C430.914,57.679 424.884,66.5 424.884,75 C424.884,82.213 429.702,84.797 434.196,84.797 C438.21,84.797 441.622,83.921 445.956,81.785 C445.979,81.774 446.013,81.775 446.032,81.791 C446.051,81.807 446.064,81.835 446.061,81.861 L443.837,93.576 C443.833,93.595 443.821,93.616 443.802,93.626 C440.513,95.216 435.425,96.173 430.187,96.173 C417.905,96.173 409.989,88.479 409.989,76.563 C409.989,59.311 423.413,46.301 441.229,46.301" id="Fill-7" fill="#1A1918" sketch:type="MSShapeGroup"></path>
            <path d="M221.815,46.301 C225.405,46.301 229.068,46.925 231.612,47.967 C231.645,47.979 231.664,48.013 231.655,48.046 L229.485,59.45 C229.478,59.472 229.465,59.492 229.444,59.5 C229.421,59.509 229.397,59.509 229.378,59.498 C227.188,58.271 224.646,57.679 221.62,57.679 C211.501,57.679 205.47,66.5 205.47,75 C205.47,82.213 210.289,84.797 214.782,84.797 C218.797,84.797 222.208,83.921 226.543,81.785 C226.57,81.774 226.598,81.775 226.618,81.791 C226.643,81.807 226.65,81.835 226.646,81.861 L224.427,93.576 C224.423,93.595 224.407,93.616 224.388,93.626 C221.1,95.216 216.01,96.173 210.773,96.173 C198.492,96.173 190.576,88.479 190.576,76.563 C190.576,59.311 203.999,46.301 221.815,46.301" id="Fill-8" fill="#1A1918" sketch:type="MSShapeGroup"></path>
            <path d="M145.607,46.104 C146.449,46.104 147.483,46.194 148.238,46.332 C148.258,46.335 148.274,46.345 148.287,46.361 C148.294,46.379 148.298,46.397 148.294,46.415 L145.559,60.192 C145.555,60.209 145.547,60.225 145.531,60.236 C145.515,60.247 145.496,60.249 145.476,60.247 C144.979,60.143 144.191,60.023 143.261,60.023 C133.611,60.023 129.846,69.457 128.382,77.258 L124.955,95.602 C124.947,95.635 124.92,95.659 124.884,95.659 L110.813,95.659 C110.79,95.659 110.773,95.65 110.761,95.634 C110.745,95.618 110.74,95.596 110.745,95.574 L119.938,47.24 C119.941,47.206 119.973,47.182 120.005,47.182 L132.383,47.18 C132.402,47.18 132.422,47.188 132.438,47.206 C132.446,47.217 132.454,47.234 132.454,47.25 L130.876,55.557 C130.863,55.613 130.876,55.686 130.947,55.723 C131.019,55.76 131.098,55.736 131.146,55.661 C134.844,49.524 139.953,46.104 145.607,46.104" id="Fill-9" fill="#1A1918" sketch:type="MSShapeGroup"></path>
            <path d="M169.563,95.171 C169.546,95.153 169.542,95.131 169.546,95.113 L170.731,89.121 C170.747,89.028 170.695,88.956 170.612,88.94 C170.549,88.928 170.488,88.964 170.456,89.018 C167.845,93.447 162.728,96.272 156.97,96.272 C147.523,96.272 143.253,87.887 143.249,79.493 C143.241,69.959 146.986,60.518 153.261,54.24 C158.516,48.981 165.301,46.201 172.882,46.201 C178.652,46.226 182.918,47.896 185.589,51.136 C189.55,55.931 189.224,63.131 188.238,68.367 L183.121,95.139 C183.116,95.173 183.089,95.196 183.053,95.196 L169.617,95.196 C169.594,95.196 169.574,95.187 169.563,95.171 L169.563,95.171 Z M164.285,59.848 C160.469,63.668 157.603,70.843 157.606,76.555 C157.606,81.569 159.467,84.692 162.7,84.692 C167.873,84.692 172.325,79.283 173.86,71.363 C174.201,69.593 174.553,67.792 174.803,66.192 C175.054,64.592 175.208,63.18 175.165,62.194 C174.997,58.812 173.236,56.987 170.079,56.987 C168.147,56.987 166.147,57.987 164.285,59.848 L164.285,59.848 Z" id="Fill-10" fill="#1A1918" sketch:type="MSShapeGroup"></path>
            <path d="M346.204,46.201 C355.612,46.201 361.714,53.333 361.714,64.448 C361.714,76.103 356.116,88.055 346.03,93.433 C336.839,98.331 328.628,96.183 326.052,92.346 C326.046,92.338 326.034,92.338 326.034,92.348 L322.599,110.5 C322.595,110.532 322.563,110.558 322.53,110.558 L308.456,110.558 C308.437,110.558 308.418,110.548 308.401,110.532 C308.39,110.516 308.386,110.495 308.39,110.474 L320.468,46.935 C320.476,46.904 320.504,46.877 320.54,46.877 L332.917,46.885 C332.938,46.885 332.957,46.896 332.97,46.911 C332.983,46.93 332.988,46.951 332.983,46.969 L331.755,53.438 C331.741,53.509 331.749,53.595 331.821,53.625 C331.887,53.653 331.963,53.629 332.015,53.557 L332.075,53.48 C335.7,48.828 340.82,46.201 346.204,46.201 L346.204,46.201 Z M333.979,85.481 C341.446,85.481 346.929,74.881 346.929,65.523 C346.929,63.265 346.396,57.776 341.188,57.776 C335.892,57.776 331.423,63.809 329.688,72.958 C329.095,76.088 327.438,85.481 333.979,85.481 L333.979,85.481 Z" id="Fill-11" fill="#1A1918" sketch:type="MSShapeGroup"></path>
            <path d="M240.74,30.367 L254.716,30.367 C254.737,30.367 254.757,30.378 254.771,30.393 C254.784,30.413 254.788,30.433 254.784,30.453 L247.493,68.801 C247.488,68.825 247.497,68.849 247.521,68.859 C247.54,68.872 247.567,68.863 247.584,68.845 L266.347,47.206 C266.358,47.19 266.379,47.182 266.397,47.182 L281.726,47.182 C281.755,47.182 281.782,47.198 281.794,47.223 C281.798,47.234 281.798,47.243 281.798,47.254 C281.798,47.269 281.794,47.287 281.782,47.3 L262.31,69.231 L274.188,95.004 C274.196,95.012 274.196,95.021 274.196,95.032 C274.196,95.045 274.192,95.06 274.185,95.069 C274.171,95.091 274.146,95.103 274.124,95.103 L258.994,95.103 C258.968,95.103 258.938,95.087 258.928,95.062 L247.44,69.585 C247.432,69.564 247.413,69.551 247.389,69.553 C247.364,69.555 247.349,69.571 247.341,69.595 L242.505,95.045 C242.499,95.079 242.471,95.103 242.436,95.103 L228.459,95.103 C228.439,95.103 228.419,95.093 228.404,95.077 C228.392,95.06 228.387,95.038 228.392,95.019 L240.669,30.425 C240.676,30.391 240.705,30.367 240.74,30.367" id="Fill-12" fill="#1A1918" sketch:type="MSShapeGroup"></path>
            <g id="Group-16" fill="#1A1918" sketch:type="MSShapeGroup">
                <path d="M476.345,46.203 C486.348,46.203 493.023,52.017 493.023,60.637 C493.023,64.623 491.728,67.901 489.171,70.392 C484.489,74.959 475.685,77.05 462.222,76.734 L462.07,76.732 C462.065,76.73 462.065,76.732 462.065,76.732 C462.062,76.734 462.062,76.734 462.062,76.736 L462.07,76.887 C462.114,78.275 462.596,80.231 463.499,81.497 C465.339,83.823 468.597,85.09 472.631,85.09 C478.528,85.09 483.642,83.658 489.198,80.453 C489.223,80.439 489.251,80.442 489.274,80.457 C489.299,80.473 489.307,80.501 489.303,80.527 L487.063,92.305 C487.06,92.328 487.046,92.346 487.028,92.356 C480.257,95.801 472.317,96.175 469.212,96.175 C455.983,96.175 448.426,88.821 448.426,75.976 C448.426,68.573 451.145,61.152 455.88,55.619 C461.08,49.546 468.349,46.203 476.345,46.203 L476.345,46.203 Z M479.692,60.637 C479.692,58.164 477.646,56.603 474.583,56.603 C468.517,56.603 464.62,61.513 463.487,66.148 L463.446,66.317 C463.446,66.317 463.442,66.323 463.446,66.326 C463.45,66.328 463.45,66.33 463.45,66.33 L463.628,66.33 C471.857,66.384 476.495,65.539 478.528,63.526 C479.311,62.746 479.692,61.798 479.692,60.637 L479.692,60.637 Z" id="Fill-13"></path>
                <path d="M498.503,87.338 L497.818,87.338 L497.565,88.707 L497.31,90.068 L498.055,90.068 C498.397,90.062 498.627,90.057 498.809,90.045 C499.007,90.031 499.16,90.004 499.323,89.954 C499.966,89.767 500.419,89.298 500.532,88.698 C500.642,88.103 500.372,87.636 499.8,87.453 C499.652,87.4 499.521,87.376 499.323,87.36 C499.144,87.348 498.92,87.346 498.579,87.338 L498.503,87.338 L498.503,87.338 Z M497.083,86.465 C497.088,86.451 497.099,86.44 497.116,86.44 L498.665,86.44 L498.683,86.441 C499.079,86.447 499.341,86.449 499.545,86.465 C499.815,86.485 500.022,86.527 500.233,86.601 C501.02,86.862 501.468,87.487 501.468,88.283 C501.468,88.419 501.454,88.562 501.426,88.707 C501.243,89.685 500.626,90.481 499.489,90.793 L500.485,93.729 L500.485,93.739 C500.485,93.745 500.485,93.751 500.483,93.755 C500.476,93.765 500.468,93.769 500.468,93.769 L499.449,93.769 C499.449,93.769 499.425,93.761 499.421,93.749 L498.471,90.952 L497.847,90.966 L497.138,90.966 L496.618,93.745 C496.614,93.759 496.603,93.769 496.603,93.769 L495.751,93.769 C495.743,93.769 495.731,93.765 495.728,93.757 C495.724,93.751 495.721,93.743 495.721,93.733 L496.247,90.93 L496.252,90.895 L496.67,88.696 L497.083,86.465 L497.083,86.465 Z M492.246,90.121 C492.556,86.697 495.577,83.923 498.997,83.923 C502.421,83.923 504.943,86.697 504.638,90.121 C504.328,93.54 501.307,96.314 497.884,96.314 C494.463,96.314 491.938,93.54 492.246,90.121 L492.246,90.121 Z M493.089,90.197 C492.822,93.127 494.96,95.47 497.884,95.47 C500.864,95.47 503.528,93.031 503.796,90.045 C504.058,87.112 501.919,84.767 498.997,84.767 C496.019,84.767 493.356,87.204 493.089,90.197 L493.089,90.197 Z" id="Fill-15"></path>
            </g>
            <path d="M270.151,142.657 L266.187,142.657 C266.165,142.657 266.146,142.646 266.132,142.631 C266.121,142.615 266.112,142.593 266.117,142.573 L270.661,118.639 C270.669,118.605 270.696,118.579 270.731,118.579 L274.698,118.579 C274.721,118.579 274.741,118.59 274.755,118.605 C274.769,118.624 274.772,118.643 274.769,118.665 L270.223,142.599 C270.215,142.633 270.188,142.657 270.151,142.657" id="Fill-17" fill="#1A1918" sketch:type="MSShapeGroup"></path>
            <path d="M406.935,142.657 L404.411,142.657 C404.392,142.657 404.371,142.646 404.354,142.631 C404.343,142.615 404.339,142.593 404.343,142.573 L406.175,132.967 C406.264,132.402 406.299,131.627 406.256,131.084 C406.084,128.907 404.697,127.607 402.542,127.607 C400.073,127.607 397.767,129.937 397.17,133.025 L395.401,142.599 C395.392,142.633 395.365,142.657 395.329,142.657 L392.804,142.657 C392.785,142.657 392.765,142.646 392.748,142.631 C392.737,142.615 392.733,142.593 392.737,142.573 L394.537,132.967 C394.647,132.446 394.698,131.673 394.647,131.084 C394.483,128.939 393.046,127.607 390.903,127.607 C388.435,127.607 386.128,129.937 385.532,133.025 L383.727,142.599 C383.724,142.633 383.691,142.657 383.66,142.657 L381.134,142.657 C381.111,142.657 381.091,142.646 381.079,142.631 C381.067,142.615 381.06,142.593 381.063,142.573 L384.257,125.623 C384.263,125.589 384.29,125.564 384.327,125.564 L386.852,125.564 C386.872,125.564 386.893,125.573 386.907,125.589 C386.92,125.605 386.924,125.627 386.92,125.649 L386.466,128.13 C387.931,126.365 389.417,125.201 391.737,125.201 C394.187,125.201 396.096,126.595 396.88,128.937 C398.327,126.492 400.569,125.201 403.38,125.201 C406.517,125.201 408.791,127.337 409.041,130.514 C409.095,131.16 408.979,131.913 408.869,132.641 C408.841,132.814 408.817,132.985 408.787,133.154 L407.007,142.599 C406.998,142.633 406.97,142.657 406.935,142.657" id="Fill-18" fill="#1A1918" sketch:type="MSShapeGroup"></path>
            <path d="M464.835,142.657 L462.309,142.657 C462.286,142.657 462.267,142.646 462.253,142.631 C462.241,142.615 462.234,142.593 462.238,142.573 L464.04,132.967 C464.149,132.443 464.198,131.669 464.149,131.084 C463.979,128.907 462.481,127.607 460.143,127.607 C457.499,127.607 455.128,129.886 454.509,133.025 L452.704,142.599 C452.698,142.633 452.667,142.657 452.636,142.657 L450.11,142.657 C450.089,142.657 450.065,142.646 450.056,142.631 C450.042,142.615 450.036,142.593 450.04,142.573 L453.231,125.623 C453.239,125.589 453.269,125.564 453.304,125.564 L455.827,125.564 C455.827,125.564 455.868,125.573 455.885,125.589 C455.897,125.605 455.901,125.627 455.897,125.649 L455.444,128.13 C456.679,126.649 458.313,125.201 460.981,125.201 C464.304,125.201 466.619,127.287 466.874,130.514 C466.925,131.188 466.854,132.029 466.651,133.157 L464.902,142.599 C464.897,142.633 464.866,142.657 464.835,142.657" id="Fill-19" fill="#1A1918" sketch:type="MSShapeGroup"></path>
            <path d="M469.716,148 C468.329,148 467.107,147.62 465.879,146.807 C465.849,146.785 465.835,146.742 465.86,146.71 L467.089,144.817 C467.096,144.8 467.114,144.79 467.136,144.785 C467.156,144.785 467.177,144.785 467.188,144.797 C467.819,145.264 468.97,145.628 469.805,145.628 C471.319,145.628 472.512,144.743 473.907,142.573 L469.501,125.653 C469.499,125.633 469.501,125.609 469.519,125.591 C469.528,125.575 469.55,125.564 469.572,125.564 L472.194,125.564 C472.226,125.564 472.253,125.588 472.262,125.619 L475.692,139.603 L483.604,125.601 C483.616,125.577 483.642,125.564 483.669,125.564 L486.523,125.564 C486.548,125.564 486.571,125.577 486.583,125.599 C486.596,125.623 486.596,125.649 486.583,125.671 L476.354,143.205 C474.281,146.613 472.358,148 469.716,148" id="Fill-20" fill="#1A1918" sketch:type="MSShapeGroup"></path>
            <path d="M351.923,143.05 C348.169,143.05 344.178,140.483 343.808,135.575 C343.605,132.845 344.532,130.148 346.352,128.178 C348.095,126.287 350.538,125.201 353.052,125.201 C357.167,125.201 359.267,127.71 360.148,129.205 C360.169,129.238 360.157,129.281 360.126,129.301 L358.192,130.579 C358.165,130.601 358.118,130.593 358.094,130.559 C357.16,129.17 355.739,127.575 353.056,127.575 C351.379,127.575 349.724,128.343 348.523,129.683 C347.095,131.233 346.368,133.352 346.53,135.5 C346.786,138.899 349.418,140.678 351.888,140.678 C353.64,140.678 355.114,139.998 356.674,138.469 C356.69,138.455 356.705,138.448 356.728,138.448 C356.745,138.45 356.763,138.455 356.776,138.469 L358.372,140.11 C358.397,140.137 358.397,140.182 358.372,140.209 C356.463,142.148 354.416,143.05 351.923,143.05" id="Fill-21" fill="#1A1918" sketch:type="MSShapeGroup"></path>
            <path d="M301.327,143.019 C298.081,143.019 295.821,140.959 295.571,137.772 C295.499,136.869 295.665,135.764 295.857,134.704 L297.642,125.261 C297.646,125.227 297.679,125.201 297.71,125.201 L301.679,125.201 C301.698,125.201 301.718,125.211 301.733,125.227 C301.746,125.245 301.749,125.265 301.746,125.287 L299.912,134.895 C299.815,135.428 299.781,136.134 299.82,136.611 C299.953,138.298 301.09,139.267 302.946,139.267 C305.089,139.267 306.795,137.591 307.287,134.998 L309.149,125.261 C309.156,125.227 309.185,125.201 309.22,125.201 L313.183,125.201 C313.208,125.201 313.228,125.211 313.241,125.227 C313.252,125.245 313.26,125.265 313.256,125.287 L309.99,142.599 C309.984,142.633 309.956,142.657 309.919,142.657 L305.956,142.657 C305.932,142.657 305.913,142.646 305.899,142.631 C305.889,142.615 305.88,142.593 305.885,142.573 L306.255,140.582 C305.142,141.754 303.591,143.019 301.327,143.019" id="Fill-22" fill="#1A1918" sketch:type="MSShapeGroup"></path>
            <path d="M257.323,143.05 C252.62,143.05 249.103,139.855 248.756,135.279 C248.549,132.51 249.444,129.893 251.273,127.915 C253.075,125.963 255.62,124.842 258.26,124.842 C262.251,124.842 264.462,127.001 265.616,128.81 C265.635,128.842 265.627,128.884 265.595,128.906 L262.678,131.005 C262.665,131.017 262.638,131.015 262.624,131.019 C262.605,131.015 262.589,131.005 262.579,130.989 C261.656,129.659 260.481,128.428 258.188,128.428 C256.876,128.428 255.561,129.04 254.574,130.11 C253.345,131.48 252.718,133.351 252.855,135.237 C253.039,137.706 254.868,139.497 257.198,139.497 C258.761,139.497 259.98,138.943 261.419,137.583 C261.433,137.571 261.453,137.563 261.47,137.563 C261.487,137.565 261.509,137.571 261.522,137.589 L263.81,140.179 C263.838,140.207 263.834,140.251 263.808,140.276 C262.401,141.648 260.534,143.05 257.323,143.05" id="Fill-23" fill="#1A1918" sketch:type="MSShapeGroup"></path>
            <path d="M236.077,142.657 L232.114,142.657 C232.09,142.657 232.069,142.646 232.058,142.631 C232.045,142.615 232.037,142.593 232.041,142.573 L233.843,132.967 C233.958,132.44 234.01,131.75 233.97,131.247 C233.835,129.559 232.686,128.591 230.809,128.591 C228.665,128.591 226.96,130.267 226.463,132.862 L224.638,142.599 C224.635,142.633 224.603,142.657 224.57,142.657 L220.57,142.657 C220.551,142.657 220.531,142.646 220.515,142.631 C220.503,142.615 220.499,142.593 220.503,142.573 L223.764,125.261 C223.771,125.227 223.799,125.201 223.835,125.201 L227.799,125.201 C227.822,125.201 227.843,125.211 227.855,125.227 C227.866,125.245 227.875,125.265 227.871,125.287 L227.497,127.248 C228.622,126.092 230.189,124.842 232.463,124.842 C235.688,124.842 237.934,126.902 238.185,130.088 C238.26,131.029 238.077,132.164 237.898,133.157 L236.149,142.599 C236.141,142.633 236.112,142.657 236.077,142.657" id="Fill-24" fill="#1A1918" sketch:type="MSShapeGroup"></path>
            <path d="M129.838,142.657 L127.313,142.657 C127.293,142.657 127.273,142.646 127.258,142.631 C127.245,142.615 127.241,142.593 127.245,142.573 L129.046,132.967 C129.158,132.446 129.205,131.673 129.158,131.084 C128.987,128.907 127.488,127.607 125.148,127.607 C122.501,127.607 120.136,129.886 119.516,133.025 L117.711,142.599 C117.707,142.633 117.675,142.657 117.644,142.657 L115.118,142.657 C115.095,142.657 115.075,142.646 115.063,142.631 C115.051,142.615 115.042,142.593 115.047,142.573 L119.592,118.639 C119.599,118.605 119.627,118.579 119.663,118.579 L122.188,118.579 C122.208,118.579 122.228,118.59 122.244,118.605 C122.256,118.624 122.26,118.643 122.256,118.665 L120.454,128.128 C121.687,126.647 123.321,125.201 125.984,125.201 C129.31,125.201 131.623,127.287 131.881,130.514 C131.929,131.19 131.862,132.029 131.659,133.157 L129.909,142.599 C129.901,142.633 129.874,142.657 129.838,142.657" id="Fill-25" fill="#1A1918" sketch:type="MSShapeGroup"></path>
            <path d="M137.253,133.007 L148.023,133.007 C148.096,132.695 148.111,132.279 148.072,131.772 C147.908,129.694 146.641,127.476 143.571,127.476 C141.865,127.476 140.307,128.172 139.063,129.488 C138.212,130.41 137.587,131.627 137.253,133.007 L137.253,133.007 Z M142.565,143.05 C138.032,143.05 134.76,140.126 134.419,135.772 C134.199,132.981 135.182,130.106 137.05,128.078 C138.784,126.198 141.026,125.201 143.535,125.201 C148.107,125.201 150.415,128.495 150.672,131.76 C150.755,132.836 150.646,133.925 150.329,134.998 C150.322,135.03 150.294,135.05 150.263,135.05 L137.054,135.05 C137.047,135.232 137.059,135.416 137.07,135.595 L137.077,135.663 C137.316,138.728 139.456,140.71 142.525,140.71 C144.775,140.71 146.151,139.919 147.531,138.728 C147.543,138.716 147.559,138.71 147.579,138.71 C147.606,138.716 147.618,138.72 147.631,138.736 L149.074,140.408 C149.101,140.438 149.098,140.482 149.069,140.507 C147.758,141.69 145.834,143.05 142.565,143.05 L142.565,143.05 Z" id="Fill-26" fill="#1A1918" sketch:type="MSShapeGroup"></path>
            <path d="M108.845,142.952 C106.22,142.952 104.563,141.678 104.399,139.541 C104.359,138.996 104.396,138.344 104.499,137.754 L106.391,127.935 L104.152,127.935 C104.133,127.935 104.112,127.926 104.097,127.909 C104.085,127.893 104.081,127.871 104.085,127.851 L104.507,125.623 C104.511,125.589 104.542,125.564 104.574,125.564 L106.872,125.564 L107.851,120.506 C107.858,120.474 107.886,120.448 107.922,120.448 L110.407,120.448 C110.427,120.448 110.446,120.458 110.463,120.474 C110.475,120.492 110.479,120.514 110.475,120.533 L109.5,125.564 L114.749,125.564 C114.769,125.564 114.788,125.573 114.805,125.589 C114.816,125.607 114.82,125.627 114.816,125.649 L114.394,127.878 C114.391,127.911 114.357,127.935 114.327,127.935 L109.055,127.935 L107.178,137.648 C107.154,137.931 107.114,138.477 107.143,138.875 C107.246,140.257 108.494,140.547 109.524,140.547 C110.285,140.547 111.091,140.374 111.909,140.029 C111.934,140.018 111.962,140.022 111.983,140.038 C112.005,140.055 112.013,140.082 112.01,140.108 L111.56,142.402 C111.557,142.426 111.538,142.446 111.516,142.453 C110.689,142.804 109.891,142.952 108.845,142.952" id="Fill-27" fill="#1A1918" sketch:type="MSShapeGroup"></path>
            <path d="M284.554,128.428 C283.212,128.428 281.917,129.015 280.902,130.078 C279.739,131.308 279.074,133.218 279.208,134.941 C279.428,137.732 281.238,139.463 283.925,139.463 C285.315,139.463 286.645,138.863 287.574,137.815 C288.739,136.589 289.403,134.68 289.272,132.951 C289.048,130.161 287.239,128.428 284.554,128.428 L284.554,128.428 Z M283.964,143.05 C279.139,143.05 275.511,139.774 275.141,135.081 C274.935,132.461 275.849,129.835 277.651,127.881 C279.421,125.921 281.857,124.842 284.513,124.842 C286.929,124.842 289.058,125.626 290.659,127.108 C292.212,128.54 293.161,130.577 293.341,132.842 C293.546,135.478 292.632,138.09 290.831,140.012 C289.058,141.97 286.62,143.05 283.964,143.05 L283.964,143.05 Z" id="Fill-28" fill="#1A1918" sketch:type="MSShapeGroup"></path>
            <path d="M370.905,127.575 C369.19,127.575 367.558,128.324 366.304,129.684 C364.917,131.188 364.185,133.289 364.345,135.301 C364.603,138.597 366.773,140.644 370.011,140.644 C371.743,140.644 373.377,139.908 374.61,138.571 C375.993,137.066 376.729,134.967 376.57,132.951 C376.312,129.635 374.141,127.575 370.905,127.575 L370.905,127.575 Z M370.021,143.05 C365.444,143.05 362.001,139.895 361.649,135.379 C361.44,132.742 362.355,130.128 364.156,128.209 C365.919,126.299 368.372,125.201 370.892,125.201 C375.485,125.201 378.944,128.344 379.298,132.842 C379.501,135.436 378.587,138.06 376.788,140.042 C375.026,141.955 372.562,143.05 370.021,143.05 L370.021,143.05 Z" id="Fill-29" fill="#1A1918" sketch:type="MSShapeGroup"></path>
            <path d="M421.845,127.575 C420.079,127.575 418.339,128.393 417.058,129.814 C415.592,131.405 414.845,133.464 415.001,135.464 C415.237,138.486 417.587,140.678 420.588,140.678 C422.271,140.678 423.849,139.989 425.038,138.734 C426.445,137.174 427.145,134.97 426.966,132.691 C426.729,129.631 424.669,127.575 421.845,127.575 L421.845,127.575 Z M412.589,147.903 L410.065,147.903 C410.042,147.903 410.02,147.892 410.009,147.877 C409.997,147.861 409.989,147.839 409.993,147.82 L414.183,125.623 C414.191,125.589 414.22,125.564 414.255,125.564 L416.78,125.564 C416.8,125.564 416.82,125.573 416.835,125.589 C416.847,125.607 416.851,125.627 416.847,125.649 L416.347,128.291 C418.079,126.214 420.057,125.201 422.391,125.201 C426.386,125.201 429.411,128.181 429.745,132.448 C429.978,135.406 429.044,138.257 427.19,140.274 C425.542,142.064 423.339,143.05 420.993,143.05 C417.302,143.05 415.345,140.889 414.339,138.999 L412.657,147.845 C412.652,147.879 412.62,147.903 412.589,147.903 L412.589,147.903 Z" id="Fill-30" fill="#1A1918" sketch:type="MSShapeGroup"></path>
            <path d="M439.118,134.066 C437.466,134.066 436.108,134.559 435.28,135.454 C434.64,136.117 434.342,136.982 434.422,137.957 C434.562,139.75 436.04,140.907 438.19,140.907 C441.161,140.907 443.821,138.761 444.38,135.915 L444.604,134.802 C442.902,134.326 440.958,134.066 439.118,134.066 L439.118,134.066 Z M437.56,143.016 C434.938,143.016 431.999,141.529 431.743,138.262 C431.618,136.655 432.067,135.241 433.054,134.178 C434.31,132.81 436.378,132.054 438.874,132.054 C440.712,132.054 442.691,132.351 444.918,132.954 L444.974,132.639 C445.074,132.122 445.113,131.511 445.082,131.084 C444.906,128.875 443.247,127.706 440.29,127.706 C438.321,127.706 436.815,128.152 435.599,128.587 C435.574,128.591 435.558,128.591 435.542,128.584 C435.522,128.575 435.511,128.56 435.502,128.54 L434.915,126.442 C434.903,126.407 434.922,126.368 434.954,126.357 C436.795,125.649 438.509,125.333 440.509,125.333 C444.78,125.333 447.384,127.269 447.649,130.645 C447.701,131.354 447.638,132.188 447.466,132.995 L445.667,142.599 C445.663,142.633 445.63,142.657 445.599,142.657 L443.138,142.657 C443.113,142.657 443.093,142.646 443.081,142.631 C443.069,142.615 443.062,142.593 443.065,142.571 L443.525,140.193 C441.948,142.067 439.944,143.016 437.56,143.016 L437.56,143.016 Z" id="Fill-31" fill="#1A1918" sketch:type="MSShapeGroup"></path>
            <path d="M324.302,128.394 C322.909,128.394 321.603,128.981 320.616,130.044 C319.402,131.361 318.795,133.265 318.954,135.267 C319.151,137.817 320.878,139.463 323.349,139.463 C324.798,139.463 326.21,138.815 327.216,137.684 C328.474,136.324 329.109,134.506 328.966,132.691 C328.77,130.161 326.854,128.394 324.302,128.394 L324.302,128.394 Z M322.106,143.019 C318.026,143.019 315.053,140.014 314.698,135.541 C314.464,132.521 315.368,129.731 317.251,127.684 C318.917,125.878 321.224,124.842 323.577,124.842 C326.21,124.842 328.197,125.932 329.645,128.166 L331.438,118.639 C331.446,118.605 331.475,118.579 331.509,118.579 L335.478,118.579 C335.498,118.579 335.519,118.59 335.532,118.605 C335.546,118.624 335.55,118.643 335.546,118.665 L331.034,142.599 C331.03,142.633 330.996,142.657 330.966,142.657 L326.997,142.657 C326.973,142.657 326.954,142.646 326.941,142.631 C326.929,142.615 326.921,142.593 326.927,142.571 L327.319,140.525 C325.726,142.225 324.063,143.019 322.106,143.019 L322.106,143.019 Z" id="Fill-32" fill="#1A1918" sketch:type="MSShapeGroup"></path>
            <path d="M191.486,128.394 C190.027,128.394 188.64,129.027 187.582,130.176 C186.345,131.515 185.721,133.336 185.868,135.17 C186.063,137.658 188.011,139.463 190.496,139.463 C191.908,139.463 193.248,138.863 194.182,137.815 C195.418,136.511 196.011,134.655 195.848,132.591 C195.646,130.042 193.936,128.394 191.486,128.394 L191.486,128.394 Z M183.577,147.903 L179.578,147.903 C179.554,147.903 179.533,147.892 179.521,147.877 C179.51,147.861 179.502,147.839 179.506,147.82 L183.765,125.261 C183.772,125.227 183.8,125.201 183.837,125.201 L187.805,125.201 C187.805,125.201 187.844,125.211 187.86,125.227 C187.871,125.245 187.875,125.267 187.871,125.287 L187.479,127.341 C189.124,125.615 190.742,124.842 192.695,124.842 C196.771,124.842 199.748,127.845 200.103,132.316 C200.337,135.343 199.43,138.132 197.546,140.176 C195.883,141.98 193.593,143.016 191.259,143.016 C188.64,143.016 186.583,141.898 185.156,139.694 L183.646,147.845 C183.641,147.879 183.609,147.903 183.577,147.903 L183.577,147.903 Z" id="Fill-33" fill="#1A1918" sketch:type="MSShapeGroup"></path>
            <path d="M206.523,132.614 L215.362,132.614 C215.43,132.309 215.45,131.907 215.414,131.476 C215.254,129.444 213.899,128.232 211.784,128.232 C210.305,128.232 208.984,128.812 207.971,129.913 C207.303,130.635 206.806,131.567 206.523,132.614 L206.523,132.614 Z M210.913,143.05 C206.019,143.05 202.75,140.124 202.381,135.41 C202.161,132.658 203.14,129.82 204.988,127.816 C206.753,125.899 209.18,124.842 211.824,124.842 C216.063,124.842 219.016,127.506 219.342,131.629 C219.438,132.854 219.274,134.134 218.873,135.331 C218.861,135.358 218.833,135.379 218.805,135.379 L206.289,135.379 C206.53,138.062 208.309,139.66 211.052,139.66 C212.607,139.66 213.839,139.181 215.303,138.004 C215.33,137.983 215.374,137.983 215.402,138.014 L217.504,140.539 C217.528,140.569 217.524,140.613 217.497,140.638 C215.68,142.261 213.529,143.05 210.913,143.05 L210.913,143.05 Z" id="Fill-34" fill="#1A1918" sketch:type="MSShapeGroup"></path>
            <path d="M170.461,128.428 C169.121,128.428 167.824,129.015 166.811,130.078 C165.646,131.306 164.981,133.215 165.117,134.941 C165.336,137.732 167.141,139.463 169.833,139.463 C171.221,139.463 172.552,138.863 173.483,137.815 C174.647,136.589 175.313,134.679 175.176,132.951 C174.957,130.161 173.149,128.428 170.461,128.428 L170.461,128.428 Z M169.873,143.05 C165.045,143.05 161.415,139.774 161.05,135.081 C160.843,132.459 161.757,129.833 163.559,127.881 C165.328,125.921 167.765,124.842 170.421,124.842 C172.839,124.842 174.966,125.626 176.568,127.108 C178.114,128.54 179.069,130.577 179.248,132.842 C179.455,135.48 178.541,138.092 176.738,140.012 C174.966,141.97 172.523,143.05 169.873,143.05 L169.873,143.05 Z" id="Fill-35" fill="#1A1918" sketch:type="MSShapeGroup"></path>
        </g>
    </g>
</svg>